<?xml version="1.0" standalone="no"?>
<!DOCTYPE svg PUBLIC "-//W3C//DTD SVG 20010904//EN"
 "http://www.w3.org/TR/2001/REC-SVG-20010904/DTD/svg10.dtd">
<svg version="1.0" xmlns="http://www.w3.org/2000/svg"
 width="1024.000000pt" height="1024.000000pt" viewBox="0 0 1024.000000 1024.000000"
 preserveAspectRatio="xMidYMid meet">
<metadata>
Created by potrace 1.11, written by Peter Selinger 2001-2013
</metadata>
<g transform="translate(0.000000,1024.000000) scale(0.100000,-0.100000)"
fill="#000000" stroke="none">
<path d="M1078 10221 c-139 -45 -240 -142 -290 -279 l-21 -57 -1 -2195 c-1
-1207 2 -2220 6 -2250 22 -151 138 -285 295 -342 57 -21 69 -21 943 -22 487
-1 910 2 940 6 86 13 189 69 251 136 56 61 102 151 113 220 10 69 7 4393 -4
4450 -22 118 -116 247 -220 300 -104 53 -86 52 -1055 51 -842 0 -904 -1 -957
-18z"/>
<path d="M3875 5615 c-164 -36 -299 -141 -372 -287 -45 -91 -80 -246 -55 -249
4 -1 1360 -2 3015 -3 1998 -1 3007 2 3008 9 11 85 -37 228 -107 322 -55 73
-111 120 -189 158 -143 70 69 65 -2720 64 -2055 0 -2531 -3 -2580 -14z"/>
<path d="M769 4785 c-2 -14 -2 -14 5 -60 13 -85 19 -113 43 -204 107 -411 358
-748 738 -994 71 -45 245 -147 252 -147 2 0 50 -22 106 -49 56 -27 203 -90
327 -141 255 -103 359 -154 445 -215 181 -129 307 -319 361 -546 13 -53 12
-256 -2 -319 -50 -235 -168 -432 -376 -627 -40 -38 -104 -97 -142 -133 -167
-156 -284 -296 -408 -485 -77 -118 -191 -336 -241 -465 -30 -74 -81 -237 -92
-287 -2 -10 -8 -37 -13 -61 -5 -23 -7 -44 -3 -47 5 -2 1404 -4 3111 -4 l3102
0 -6 82 c-4 45 -8 93 -10 107 -10 77 -19 129 -26 160 -5 19 -11 47 -14 61 -5
31 -34 133 -47 167 -69 177 -147 306 -289 475 -111 132 -216 222 -445 376
-284 192 -423 327 -491 475 -40 89 -52 147 -52 259 0 162 35 261 122 351 107
111 231 168 626 292 39 12 380 107 536 149 98 27 282 105 369 158 146 88 270
184 394 302 78 74 228 242 278 310 12 17 36 50 55 75 98 131 221 337 302 505
89 184 186 433 186 478 0 16 -8699 18 -8701 2z"/>
</g>
</svg>
